<svg width="100" height="107" viewBox="0 0 100 107" fill="none" xmlns="http://www.w3.org/2000/svg">
<path fill-rule="evenodd" clip-rule="evenodd" d="M59.4855 6.52779C59.4855 10.133 55.8865 13.0556 51.4469 13.0556C47.0074 13.0556 43.4084 10.133 43.4084 6.52779C43.4084 2.92259 47.0074 0 51.4469 0C55.8865 0 59.4855 2.92259 59.4855 6.52779ZM18.6495 7.04517L26.9756 0.783335L51.0234 20.7837L76.8574 2.29783L84.5659 9.03609L50.4862 33.4223L50.3862 33.3349L50.3196 33.385L18.6495 7.04517ZM9.6463 16.1889H0V76.2446H9.6463V16.1889ZM100 16.1889H90.3537V76.2446H100V16.1889ZM15.1125 24.0223H24.7588V76.2446H15.1125V24.0223ZM84.8875 24.0223H75.2412V76.2446H84.8875V24.0223ZM30.2251 31.8556H39.8714V76.2446H30.2251V31.8556ZM69.7749 31.8556H60.1286V76.2446H69.7749V31.8556ZM45.3376 37.0778H54.9839V76.2446H45.3376V37.0778ZM52.9174 81.2373C52.9174 81.5391 52.9448 81.9095 52.9997 82.3485L54.5225 82.472C54.1384 84.4476 53.5347 86.5878 52.7116 88.8926C51.8884 91.17 51.1064 93.0221 50.3656 94.4489H50.201C49.8717 93.6806 49.1034 91.9794 47.8961 89.3453C46.6889 86.7113 45.8245 84.4201 45.3032 82.472L46.7849 82.3485C46.8398 81.8547 46.8672 81.4568 46.8672 81.155C46.8672 80.8257 46.826 80.4553 46.7437 80.0437C45.8108 80.0712 44.631 80.0849 43.2042 80.0849C41.8048 80.0849 40.625 80.0712 39.6646 80.0437C39.5823 80.5102 39.5412 80.908 39.5412 81.2373C39.5412 81.5391 39.5686 81.9095 39.6235 82.3485L41.1463 82.472C41.3109 82.8013 41.8323 83.8165 42.7103 85.5177C45.8383 91.7736 47.7589 96.0815 48.4723 98.4412C48.4449 99.8405 48.3489 101.734 48.1842 104.121L46.7437 104.244C46.6889 104.738 46.6614 105.15 46.6614 105.479C46.6614 105.781 46.7026 106.138 46.7849 106.549C47.7178 106.522 48.8153 106.508 50.0775 106.508C51.3397 106.508 52.4509 106.522 53.4113 106.549C53.4936 106.083 53.5347 105.699 53.5347 105.397C53.5347 105.068 53.5073 104.683 53.4524 104.244L51.9707 104.121C51.8335 102.475 51.7238 100.609 51.6415 98.5235C52.3274 95.9168 54.5499 90.5663 58.309 82.472L59.7495 82.3485C59.8044 82.0742 59.8318 81.7449 59.8318 81.3608C59.8318 80.9492 59.7907 80.5102 59.7084 80.0437C58.748 80.0712 57.6093 80.0849 56.2923 80.0849C55.0027 80.0849 53.9189 80.0712 53.0408 80.0437C52.9585 80.5102 52.9174 80.908 52.9174 81.2373Z" fill="white"/>
</svg>
